<mxfile host="app.diagrams.net" agent="Mozilla/5.0 (Windows NT 10.0; Win64; x64) AppleWebKit/537.36 (KHTML, like Gecko) Chrome/132.0.0.0 YaBrowser/25.2.0.0 Safari/537.36" version="26.2.14">
  <diagram name="Страница — 1" id="3Ax1CGOEJsUnCffjni9F">
    <mxGraphModel dx="3070" dy="1221" grid="1" gridSize="10" guides="1" tooltips="1" connect="1" arrows="1" fold="1" page="1" pageScale="1" pageWidth="1169" pageHeight="827" math="0" shadow="0">
      <root>
        <mxCell id="0" />
        <mxCell id="1" parent="0" />
        <mxCell id="ps8U6fKTgYQEevWGZBMo-1" value="" style="ellipse;html=1;shape=startState;fillColor=#000000;strokeColor=#ff0000;" vertex="1" parent="1">
          <mxGeometry x="400" y="20" width="30" height="30" as="geometry" />
        </mxCell>
        <mxCell id="ps8U6fKTgYQEevWGZBMo-2" value="" style="edgeStyle=orthogonalEdgeStyle;html=1;verticalAlign=bottom;endArrow=open;endSize=8;strokeColor=#ff0000;rounded=0;" edge="1" source="ps8U6fKTgYQEevWGZBMo-1" parent="1">
          <mxGeometry relative="1" as="geometry">
            <mxPoint x="415" y="80" as="targetPoint" />
          </mxGeometry>
        </mxCell>
        <mxCell id="ps8U6fKTgYQEevWGZBMo-4" value="" style="endArrow=none;html=1;rounded=0;strokeWidth=2;" edge="1" parent="1">
          <mxGeometry width="50" height="50" relative="1" as="geometry">
            <mxPoint x="280" y="80" as="sourcePoint" />
            <mxPoint x="560" y="80" as="targetPoint" />
          </mxGeometry>
        </mxCell>
        <mxCell id="ps8U6fKTgYQEevWGZBMo-5" value="" style="endArrow=classic;html=1;rounded=0;sourcePerimeterSpacing=0;targetPerimeterSpacing=0;" edge="1" parent="1">
          <mxGeometry width="50" height="50" relative="1" as="geometry">
            <mxPoint x="415" y="80" as="sourcePoint" />
            <mxPoint x="415" y="110" as="targetPoint" />
          </mxGeometry>
        </mxCell>
        <mxCell id="ps8U6fKTgYQEevWGZBMo-6" value="Регистрация" style="rounded=1;whiteSpace=wrap;html=1;" vertex="1" parent="1">
          <mxGeometry x="365" y="110" width="100" height="30" as="geometry" />
        </mxCell>
        <mxCell id="ps8U6fKTgYQEevWGZBMo-7" value="" style="endArrow=classic;html=1;rounded=0;exitX=0.45;exitY=1;exitDx=0;exitDy=0;exitPerimeter=0;" edge="1" parent="1">
          <mxGeometry width="50" height="50" relative="1" as="geometry">
            <mxPoint x="414.76" y="140" as="sourcePoint" />
            <mxPoint x="415" y="160" as="targetPoint" />
          </mxGeometry>
        </mxCell>
        <mxCell id="ps8U6fKTgYQEevWGZBMo-8" value="" style="rhombus;whiteSpace=wrap;html=1;" vertex="1" parent="1">
          <mxGeometry x="385" y="160" width="60" height="40" as="geometry" />
        </mxCell>
        <mxCell id="ps8U6fKTgYQEevWGZBMo-9" value="" style="endArrow=classic;html=1;rounded=0;exitX=0.5;exitY=1;exitDx=0;exitDy=0;" edge="1" parent="1" source="ps8U6fKTgYQEevWGZBMo-8">
          <mxGeometry width="50" height="50" relative="1" as="geometry">
            <mxPoint x="530" y="250" as="sourcePoint" />
            <mxPoint x="415" y="230" as="targetPoint" />
          </mxGeometry>
        </mxCell>
        <mxCell id="ps8U6fKTgYQEevWGZBMo-10" value="" style="endArrow=classic;html=1;rounded=0;exitX=1;exitY=0.5;exitDx=0;exitDy=0;" edge="1" parent="1" source="ps8U6fKTgYQEevWGZBMo-8">
          <mxGeometry width="50" height="50" relative="1" as="geometry">
            <mxPoint x="530" y="250" as="sourcePoint" />
            <mxPoint x="500" y="80" as="targetPoint" />
            <Array as="points">
              <mxPoint x="620" y="180" />
              <mxPoint x="620" y="40" />
              <mxPoint x="500" y="40" />
            </Array>
          </mxGeometry>
        </mxCell>
        <mxCell id="ps8U6fKTgYQEevWGZBMo-12" value="[Не успешно]" style="text;html=1;align=center;verticalAlign=middle;whiteSpace=wrap;rounded=0;" vertex="1" parent="1">
          <mxGeometry x="480" y="150" width="80" height="30" as="geometry" />
        </mxCell>
        <mxCell id="ps8U6fKTgYQEevWGZBMo-14" value="Авторизация" style="rounded=1;whiteSpace=wrap;html=1;" vertex="1" parent="1">
          <mxGeometry x="365" y="230" width="100" height="30" as="geometry" />
        </mxCell>
        <mxCell id="ps8U6fKTgYQEevWGZBMo-15" value="" style="endArrow=classic;html=1;rounded=0;exitX=0.5;exitY=1;exitDx=0;exitDy=0;" edge="1" parent="1" source="ps8U6fKTgYQEevWGZBMo-14">
          <mxGeometry width="50" height="50" relative="1" as="geometry">
            <mxPoint x="470" y="370" as="sourcePoint" />
            <mxPoint x="415" y="280" as="targetPoint" />
          </mxGeometry>
        </mxCell>
        <mxCell id="ps8U6fKTgYQEevWGZBMo-16" value="" style="endArrow=none;html=1;rounded=0;strokeWidth=2;" edge="1" parent="1">
          <mxGeometry width="50" height="50" relative="1" as="geometry">
            <mxPoint x="-80" y="280" as="sourcePoint" />
            <mxPoint x="1000" y="280" as="targetPoint" />
          </mxGeometry>
        </mxCell>
        <mxCell id="ps8U6fKTgYQEevWGZBMo-18" value="" style="endArrow=classic;html=1;rounded=0;" edge="1" parent="1">
          <mxGeometry width="50" height="50" relative="1" as="geometry">
            <mxPoint x="40" y="280" as="sourcePoint" />
            <mxPoint x="40" y="320" as="targetPoint" />
          </mxGeometry>
        </mxCell>
        <mxCell id="ps8U6fKTgYQEevWGZBMo-19" value="" style="endArrow=classic;html=1;rounded=0;" edge="1" parent="1">
          <mxGeometry width="50" height="50" relative="1" as="geometry">
            <mxPoint x="800" y="280" as="sourcePoint" />
            <mxPoint x="800" y="320" as="targetPoint" />
          </mxGeometry>
        </mxCell>
        <mxCell id="ps8U6fKTgYQEevWGZBMo-20" value="" style="rhombus;whiteSpace=wrap;html=1;" vertex="1" parent="1">
          <mxGeometry x="10" y="320" width="60" height="40" as="geometry" />
        </mxCell>
        <mxCell id="ps8U6fKTgYQEevWGZBMo-21" value="" style="rhombus;whiteSpace=wrap;html=1;" vertex="1" parent="1">
          <mxGeometry x="770" y="320" width="60" height="40" as="geometry" />
        </mxCell>
        <mxCell id="ps8U6fKTgYQEevWGZBMo-22" value="" style="endArrow=classic;html=1;rounded=0;exitX=0;exitY=0.5;exitDx=0;exitDy=0;" edge="1" parent="1" source="ps8U6fKTgYQEevWGZBMo-20">
          <mxGeometry width="50" height="50" relative="1" as="geometry">
            <mxPoint x="450" y="480" as="sourcePoint" />
            <mxPoint x="360" y="210" as="targetPoint" />
            <Array as="points">
              <mxPoint x="-160" y="340" />
              <mxPoint x="-160" y="200" />
              <mxPoint x="360" y="200" />
            </Array>
          </mxGeometry>
        </mxCell>
        <mxCell id="ps8U6fKTgYQEevWGZBMo-23" value="" style="endArrow=classic;html=1;rounded=0;exitX=1;exitY=0.5;exitDx=0;exitDy=0;" edge="1" parent="1" source="ps8U6fKTgYQEevWGZBMo-21">
          <mxGeometry width="50" height="50" relative="1" as="geometry">
            <mxPoint x="450" y="480" as="sourcePoint" />
            <mxPoint x="480" y="210" as="targetPoint" />
            <Array as="points">
              <mxPoint x="1080" y="340" />
              <mxPoint x="1080" y="200" />
              <mxPoint x="480" y="200" />
            </Array>
          </mxGeometry>
        </mxCell>
        <mxCell id="ps8U6fKTgYQEevWGZBMo-24" value="[Не успешно]" style="text;html=1;align=center;verticalAlign=middle;whiteSpace=wrap;rounded=0;" vertex="1" parent="1">
          <mxGeometry x="-130" y="310" width="90" height="30" as="geometry" />
        </mxCell>
        <mxCell id="ps8U6fKTgYQEevWGZBMo-25" value="[Не успешно]" style="text;html=1;align=center;verticalAlign=middle;whiteSpace=wrap;rounded=0;" vertex="1" parent="1">
          <mxGeometry x="910" y="310" width="90" height="30" as="geometry" />
        </mxCell>
        <mxCell id="ps8U6fKTgYQEevWGZBMo-26" value="[Пользователь]" style="text;html=1;align=center;verticalAlign=middle;whiteSpace=wrap;rounded=0;" vertex="1" parent="1">
          <mxGeometry x="60" y="290" width="60" height="30" as="geometry" />
        </mxCell>
        <mxCell id="ps8U6fKTgYQEevWGZBMo-27" value="[Администратор]" style="text;html=1;align=center;verticalAlign=middle;whiteSpace=wrap;rounded=0;" vertex="1" parent="1">
          <mxGeometry x="720" y="290" width="60" height="30" as="geometry" />
        </mxCell>
        <mxCell id="ps8U6fKTgYQEevWGZBMo-28" value="" style="endArrow=classic;html=1;rounded=0;exitX=0.5;exitY=1;exitDx=0;exitDy=0;" edge="1" parent="1" source="ps8U6fKTgYQEevWGZBMo-20">
          <mxGeometry width="50" height="50" relative="1" as="geometry">
            <mxPoint x="390" y="480" as="sourcePoint" />
            <mxPoint x="40" y="400" as="targetPoint" />
          </mxGeometry>
        </mxCell>
        <mxCell id="ps8U6fKTgYQEevWGZBMo-29" value="" style="endArrow=classic;html=1;rounded=0;exitX=0.5;exitY=1;exitDx=0;exitDy=0;" edge="1" parent="1">
          <mxGeometry width="50" height="50" relative="1" as="geometry">
            <mxPoint x="799.71" y="360" as="sourcePoint" />
            <mxPoint x="799.71" y="400" as="targetPoint" />
          </mxGeometry>
        </mxCell>
        <mxCell id="ps8U6fKTgYQEevWGZBMo-30" value="[Успешно]" style="text;html=1;align=center;verticalAlign=middle;whiteSpace=wrap;rounded=0;" vertex="1" parent="1">
          <mxGeometry x="-30" y="360" width="60" height="30" as="geometry" />
        </mxCell>
        <mxCell id="ps8U6fKTgYQEevWGZBMo-31" value="[Успешно]" style="text;html=1;align=center;verticalAlign=middle;whiteSpace=wrap;rounded=0;" vertex="1" parent="1">
          <mxGeometry x="810" y="360" width="60" height="30" as="geometry" />
        </mxCell>
        <mxCell id="ps8U6fKTgYQEevWGZBMo-33" value="Выполнение действия" style="rounded=1;whiteSpace=wrap;html=1;" vertex="1" parent="1">
          <mxGeometry x="-10" y="399" width="100" height="30" as="geometry" />
        </mxCell>
        <mxCell id="ps8U6fKTgYQEevWGZBMo-34" value="Выполнение действия" style="rounded=1;whiteSpace=wrap;html=1;" vertex="1" parent="1">
          <mxGeometry x="750" y="399" width="100" height="30" as="geometry" />
        </mxCell>
        <mxCell id="ps8U6fKTgYQEevWGZBMo-35" value="" style="rhombus;whiteSpace=wrap;html=1;" vertex="1" parent="1">
          <mxGeometry x="10" y="450" width="60" height="40" as="geometry" />
        </mxCell>
        <mxCell id="ps8U6fKTgYQEevWGZBMo-36" value="" style="rhombus;whiteSpace=wrap;html=1;" vertex="1" parent="1">
          <mxGeometry x="770" y="450" width="60" height="40" as="geometry" />
        </mxCell>
        <mxCell id="ps8U6fKTgYQEevWGZBMo-37" value="" style="endArrow=classic;html=1;rounded=0;exitX=0.5;exitY=1;exitDx=0;exitDy=0;entryX=0.5;entryY=0;entryDx=0;entryDy=0;" edge="1" parent="1" source="ps8U6fKTgYQEevWGZBMo-33" target="ps8U6fKTgYQEevWGZBMo-35">
          <mxGeometry width="50" height="50" relative="1" as="geometry">
            <mxPoint x="390" y="680" as="sourcePoint" />
            <mxPoint x="440" y="630" as="targetPoint" />
          </mxGeometry>
        </mxCell>
        <mxCell id="ps8U6fKTgYQEevWGZBMo-38" value="" style="endArrow=classic;html=1;rounded=0;exitX=0.5;exitY=1;exitDx=0;exitDy=0;entryX=0.5;entryY=0;entryDx=0;entryDy=0;" edge="1" parent="1">
          <mxGeometry width="50" height="50" relative="1" as="geometry">
            <mxPoint x="799.5" y="429" as="sourcePoint" />
            <mxPoint x="799.5" y="450" as="targetPoint" />
          </mxGeometry>
        </mxCell>
        <mxCell id="ps8U6fKTgYQEevWGZBMo-39" value="" style="endArrow=classic;html=1;rounded=0;exitX=0.5;exitY=1;exitDx=0;exitDy=0;" edge="1" parent="1" source="ps8U6fKTgYQEevWGZBMo-35">
          <mxGeometry width="50" height="50" relative="1" as="geometry">
            <mxPoint x="390" y="680" as="sourcePoint" />
            <mxPoint x="40" y="520" as="targetPoint" />
          </mxGeometry>
        </mxCell>
        <mxCell id="ps8U6fKTgYQEevWGZBMo-40" value="" style="endArrow=classic;html=1;rounded=0;exitX=0.5;exitY=1;exitDx=0;exitDy=0;" edge="1" parent="1">
          <mxGeometry width="50" height="50" relative="1" as="geometry">
            <mxPoint x="799.5" y="490" as="sourcePoint" />
            <mxPoint x="799.5" y="520" as="targetPoint" />
          </mxGeometry>
        </mxCell>
        <mxCell id="ps8U6fKTgYQEevWGZBMo-42" value="" style="endArrow=none;html=1;rounded=0;strokeWidth=2;" edge="1" parent="1">
          <mxGeometry width="50" height="50" relative="1" as="geometry">
            <mxPoint x="-440" y="520" as="sourcePoint" />
            <mxPoint x="120" y="520" as="targetPoint" />
          </mxGeometry>
        </mxCell>
        <mxCell id="ps8U6fKTgYQEevWGZBMo-43" value="" style="edgeStyle=orthogonalEdgeStyle;rounded=0;orthogonalLoop=1;jettySize=auto;html=1;" edge="1" parent="1" source="ps8U6fKTgYQEevWGZBMo-44" target="ps8U6fKTgYQEevWGZBMo-59">
          <mxGeometry relative="1" as="geometry" />
        </mxCell>
        <mxCell id="ps8U6fKTgYQEevWGZBMo-44" value="Ввод данных счетчиков" style="rounded=1;whiteSpace=wrap;html=1;" vertex="1" parent="1">
          <mxGeometry x="-160" y="560" width="110" height="30" as="geometry" />
        </mxCell>
        <mxCell id="ps8U6fKTgYQEevWGZBMo-45" value="Просмотр данных" style="rounded=1;whiteSpace=wrap;html=1;" vertex="1" parent="1">
          <mxGeometry x="-10" y="560" width="110" height="30" as="geometry" />
        </mxCell>
        <mxCell id="ps8U6fKTgYQEevWGZBMo-46" value="Нажатие &quot;Рассчитать&quot;" style="rounded=1;whiteSpace=wrap;html=1;" vertex="1" parent="1">
          <mxGeometry x="-300" y="560" width="110" height="30" as="geometry" />
        </mxCell>
        <mxCell id="ps8U6fKTgYQEevWGZBMo-47" value="Расчет квартплаты" style="rounded=1;whiteSpace=wrap;html=1;" vertex="1" parent="1">
          <mxGeometry x="-430" y="560" width="110" height="30" as="geometry" />
        </mxCell>
        <mxCell id="ps8U6fKTgYQEevWGZBMo-48" value="Запись данных в БД" style="rounded=1;whiteSpace=wrap;html=1;" vertex="1" parent="1">
          <mxGeometry x="-430" y="620" width="110" height="30" as="geometry" />
        </mxCell>
        <mxCell id="ps8U6fKTgYQEevWGZBMo-49" value="" style="endArrow=classic;html=1;rounded=0;entryX=0.5;entryY=0;entryDx=0;entryDy=0;" edge="1" parent="1" target="ps8U6fKTgYQEevWGZBMo-44">
          <mxGeometry width="50" height="50" relative="1" as="geometry">
            <mxPoint x="-105" y="520" as="sourcePoint" />
            <mxPoint x="-60" y="630" as="targetPoint" />
          </mxGeometry>
        </mxCell>
        <mxCell id="ps8U6fKTgYQEevWGZBMo-50" value="" style="endArrow=classic;html=1;rounded=0;" edge="1" parent="1">
          <mxGeometry width="50" height="50" relative="1" as="geometry">
            <mxPoint x="-105.30999999999995" y="590" as="sourcePoint" />
            <mxPoint x="-105" y="620" as="targetPoint" />
          </mxGeometry>
        </mxCell>
        <mxCell id="ps8U6fKTgYQEevWGZBMo-51" value="" style="endArrow=classic;html=1;rounded=0;" edge="1" parent="1">
          <mxGeometry width="50" height="50" relative="1" as="geometry">
            <mxPoint x="-245.42000000000007" y="590" as="sourcePoint" />
            <mxPoint x="-245.11000000000013" y="620" as="targetPoint" />
          </mxGeometry>
        </mxCell>
        <mxCell id="ps8U6fKTgYQEevWGZBMo-52" value="" style="endArrow=classic;html=1;rounded=0;" edge="1" parent="1">
          <mxGeometry width="50" height="50" relative="1" as="geometry">
            <mxPoint x="-375.28999999999996" y="590" as="sourcePoint" />
            <mxPoint x="-374.98" y="620" as="targetPoint" />
          </mxGeometry>
        </mxCell>
        <mxCell id="ps8U6fKTgYQEevWGZBMo-53" value="" style="endArrow=classic;html=1;rounded=0;entryX=0.5;entryY=0;entryDx=0;entryDy=0;" edge="1" parent="1" target="ps8U6fKTgYQEevWGZBMo-45">
          <mxGeometry width="50" height="50" relative="1" as="geometry">
            <mxPoint x="44.690000000000055" y="520" as="sourcePoint" />
            <mxPoint x="45" y="550" as="targetPoint" />
          </mxGeometry>
        </mxCell>
        <mxCell id="ps8U6fKTgYQEevWGZBMo-54" value="" style="endArrow=classic;html=1;rounded=0;exitX=0.5;exitY=1;exitDx=0;exitDy=0;" edge="1" parent="1" source="ps8U6fKTgYQEevWGZBMo-45">
          <mxGeometry width="50" height="50" relative="1" as="geometry">
            <mxPoint x="-110" y="680" as="sourcePoint" />
            <mxPoint x="45" y="680" as="targetPoint" />
          </mxGeometry>
        </mxCell>
        <mxCell id="ps8U6fKTgYQEevWGZBMo-55" value="" style="endArrow=classic;html=1;rounded=0;entryX=0.5;entryY=0;entryDx=0;entryDy=0;" edge="1" parent="1" target="ps8U6fKTgYQEevWGZBMo-46">
          <mxGeometry width="50" height="50" relative="1" as="geometry">
            <mxPoint x="-245.28999999999996" y="520" as="sourcePoint" />
            <mxPoint x="-244.98000000000002" y="550" as="targetPoint" />
          </mxGeometry>
        </mxCell>
        <mxCell id="ps8U6fKTgYQEevWGZBMo-56" value="" style="endArrow=none;html=1;rounded=0;strokeWidth=2;" edge="1" parent="1">
          <mxGeometry width="50" height="50" relative="1" as="geometry">
            <mxPoint x="-440" y="680" as="sourcePoint" />
            <mxPoint x="120" y="680" as="targetPoint" />
          </mxGeometry>
        </mxCell>
        <mxCell id="ps8U6fKTgYQEevWGZBMo-57" value="Вывод данных" style="rounded=1;whiteSpace=wrap;html=1;" vertex="1" parent="1">
          <mxGeometry x="-300" y="620" width="110" height="30" as="geometry" />
        </mxCell>
        <mxCell id="ps8U6fKTgYQEevWGZBMo-58" value="" style="endArrow=classic;html=1;rounded=0;entryX=0.5;entryY=0;entryDx=0;entryDy=0;" edge="1" parent="1">
          <mxGeometry width="50" height="50" relative="1" as="geometry">
            <mxPoint x="-375.28999999999996" y="520" as="sourcePoint" />
            <mxPoint x="-375" y="560" as="targetPoint" />
          </mxGeometry>
        </mxCell>
        <mxCell id="ps8U6fKTgYQEevWGZBMo-59" value="Проверка корректности" style="rounded=1;whiteSpace=wrap;html=1;" vertex="1" parent="1">
          <mxGeometry x="-160" y="620" width="110" height="30" as="geometry" />
        </mxCell>
        <mxCell id="ps8U6fKTgYQEevWGZBMo-60" value="" style="endArrow=classic;html=1;rounded=0;" edge="1" parent="1">
          <mxGeometry width="50" height="50" relative="1" as="geometry">
            <mxPoint x="-105.28999999999996" y="650" as="sourcePoint" />
            <mxPoint x="-104.98000000000002" y="680" as="targetPoint" />
          </mxGeometry>
        </mxCell>
        <mxCell id="ps8U6fKTgYQEevWGZBMo-61" value="" style="endArrow=classic;html=1;rounded=0;" edge="1" parent="1">
          <mxGeometry width="50" height="50" relative="1" as="geometry">
            <mxPoint x="-245.17999999999984" y="650" as="sourcePoint" />
            <mxPoint x="-244.8699999999999" y="680" as="targetPoint" />
          </mxGeometry>
        </mxCell>
        <mxCell id="ps8U6fKTgYQEevWGZBMo-62" value="" style="endArrow=classic;html=1;rounded=0;" edge="1" parent="1">
          <mxGeometry width="50" height="50" relative="1" as="geometry">
            <mxPoint x="-375.28999999999996" y="650" as="sourcePoint" />
            <mxPoint x="-374.98" y="680" as="targetPoint" />
          </mxGeometry>
        </mxCell>
        <mxCell id="ps8U6fKTgYQEevWGZBMo-63" value="" style="endArrow=none;html=1;rounded=0;strokeWidth=2;" edge="1" parent="1">
          <mxGeometry width="50" height="50" relative="1" as="geometry">
            <mxPoint x="720" y="520" as="sourcePoint" />
            <mxPoint x="1280" y="520" as="targetPoint" />
          </mxGeometry>
        </mxCell>
        <mxCell id="ps8U6fKTgYQEevWGZBMo-64" value="" style="endArrow=none;html=1;rounded=0;strokeWidth=2;" edge="1" parent="1">
          <mxGeometry width="50" height="50" relative="1" as="geometry">
            <mxPoint x="720" y="680" as="sourcePoint" />
            <mxPoint x="1280" y="680" as="targetPoint" />
          </mxGeometry>
        </mxCell>
        <mxCell id="ps8U6fKTgYQEevWGZBMo-65" value="Просмотр данных" style="rounded=1;whiteSpace=wrap;html=1;" vertex="1" parent="1">
          <mxGeometry x="720" y="560" width="110" height="30" as="geometry" />
        </mxCell>
        <mxCell id="ps8U6fKTgYQEevWGZBMo-66" value="Редактирование данных" style="rounded=1;whiteSpace=wrap;html=1;" vertex="1" parent="1">
          <mxGeometry x="860" y="560" width="110" height="30" as="geometry" />
        </mxCell>
        <mxCell id="ps8U6fKTgYQEevWGZBMo-67" value="Удаление записи" style="rounded=1;whiteSpace=wrap;html=1;" vertex="1" parent="1">
          <mxGeometry x="1000" y="560" width="110" height="30" as="geometry" />
        </mxCell>
        <mxCell id="ps8U6fKTgYQEevWGZBMo-68" value="Добавление записи" style="rounded=1;whiteSpace=wrap;html=1;" vertex="1" parent="1">
          <mxGeometry x="1160" y="560" width="110" height="30" as="geometry" />
        </mxCell>
        <mxCell id="ps8U6fKTgYQEevWGZBMo-69" value="&lt;font style=&quot;font-size: 10px;&quot;&gt;Успешное редактирование данных&lt;/font&gt;" style="rounded=1;whiteSpace=wrap;html=1;" vertex="1" parent="1">
          <mxGeometry x="850" y="620" width="130" height="30" as="geometry" />
        </mxCell>
        <mxCell id="ps8U6fKTgYQEevWGZBMo-70" value="&lt;font style=&quot;font-size: 10px;&quot;&gt;Успешное удаление записи&lt;/font&gt;" style="rounded=1;whiteSpace=wrap;html=1;" vertex="1" parent="1">
          <mxGeometry x="990" y="620" width="130" height="30" as="geometry" />
        </mxCell>
        <mxCell id="ps8U6fKTgYQEevWGZBMo-71" value="&lt;font style=&quot;font-size: 10px;&quot;&gt;Успешное добавление записи&lt;/font&gt;" style="rounded=1;whiteSpace=wrap;html=1;" vertex="1" parent="1">
          <mxGeometry x="1140" y="620" width="130" height="30" as="geometry" />
        </mxCell>
        <mxCell id="ps8U6fKTgYQEevWGZBMo-72" value="" style="endArrow=classic;html=1;rounded=0;entryX=0.5;entryY=0;entryDx=0;entryDy=0;" edge="1" parent="1">
          <mxGeometry width="50" height="50" relative="1" as="geometry">
            <mxPoint x="1214.72" y="520" as="sourcePoint" />
            <mxPoint x="1215.01" y="560" as="targetPoint" />
          </mxGeometry>
        </mxCell>
        <mxCell id="ps8U6fKTgYQEevWGZBMo-73" value="" style="endArrow=classic;html=1;rounded=0;entryX=0.5;entryY=0;entryDx=0;entryDy=0;" edge="1" parent="1">
          <mxGeometry width="50" height="50" relative="1" as="geometry">
            <mxPoint x="1054.72" y="520" as="sourcePoint" />
            <mxPoint x="1055.01" y="560" as="targetPoint" />
          </mxGeometry>
        </mxCell>
        <mxCell id="ps8U6fKTgYQEevWGZBMo-74" value="" style="endArrow=classic;html=1;rounded=0;entryX=0.5;entryY=0;entryDx=0;entryDy=0;" edge="1" parent="1">
          <mxGeometry width="50" height="50" relative="1" as="geometry">
            <mxPoint x="914.72" y="520" as="sourcePoint" />
            <mxPoint x="915.01" y="560" as="targetPoint" />
          </mxGeometry>
        </mxCell>
        <mxCell id="ps8U6fKTgYQEevWGZBMo-75" value="" style="endArrow=classic;html=1;rounded=0;entryX=0.5;entryY=0;entryDx=0;entryDy=0;" edge="1" parent="1">
          <mxGeometry width="50" height="50" relative="1" as="geometry">
            <mxPoint x="774.72" y="520" as="sourcePoint" />
            <mxPoint x="775.01" y="560" as="targetPoint" />
          </mxGeometry>
        </mxCell>
        <mxCell id="ps8U6fKTgYQEevWGZBMo-76" value="" style="endArrow=classic;html=1;rounded=0;" edge="1" parent="1">
          <mxGeometry width="50" height="50" relative="1" as="geometry">
            <mxPoint x="1214.72" y="590" as="sourcePoint" />
            <mxPoint x="1215.03" y="620" as="targetPoint" />
          </mxGeometry>
        </mxCell>
        <mxCell id="ps8U6fKTgYQEevWGZBMo-77" value="" style="endArrow=classic;html=1;rounded=0;" edge="1" parent="1">
          <mxGeometry width="50" height="50" relative="1" as="geometry">
            <mxPoint x="1054.72" y="590" as="sourcePoint" />
            <mxPoint x="1055.03" y="620" as="targetPoint" />
          </mxGeometry>
        </mxCell>
        <mxCell id="ps8U6fKTgYQEevWGZBMo-79" value="" style="endArrow=classic;html=1;rounded=0;exitX=0.5;exitY=1;exitDx=0;exitDy=0;" edge="1" parent="1">
          <mxGeometry width="50" height="50" relative="1" as="geometry">
            <mxPoint x="774.47" y="590" as="sourcePoint" />
            <mxPoint x="774.47" y="680" as="targetPoint" />
          </mxGeometry>
        </mxCell>
        <mxCell id="ps8U6fKTgYQEevWGZBMo-81" value="" style="endArrow=classic;html=1;rounded=0;exitX=0.5;exitY=1;exitDx=0;exitDy=0;" edge="1" parent="1" source="ps8U6fKTgYQEevWGZBMo-80">
          <mxGeometry width="50" height="50" relative="1" as="geometry">
            <mxPoint x="487" y="930" as="sourcePoint" />
            <mxPoint x="415" y="900" as="targetPoint" />
          </mxGeometry>
        </mxCell>
        <mxCell id="ps8U6fKTgYQEevWGZBMo-84" value="" style="endArrow=none;html=1;rounded=0;strokeWidth=2;" edge="1" parent="1">
          <mxGeometry width="50" height="50" relative="1" as="geometry">
            <mxPoint x="-280" y="780" as="sourcePoint" />
            <mxPoint x="1040" y="780" as="targetPoint" />
          </mxGeometry>
        </mxCell>
        <mxCell id="ps8U6fKTgYQEevWGZBMo-85" value="" style="endArrow=classic;html=1;rounded=0;" edge="1" parent="1">
          <mxGeometry width="50" height="50" relative="1" as="geometry">
            <mxPoint x="-50" y="680" as="sourcePoint" />
            <mxPoint x="-50" y="780" as="targetPoint" />
          </mxGeometry>
        </mxCell>
        <mxCell id="ps8U6fKTgYQEevWGZBMo-86" value="" style="endArrow=classic;html=1;rounded=0;" edge="1" parent="1">
          <mxGeometry width="50" height="50" relative="1" as="geometry">
            <mxPoint x="890" y="680" as="sourcePoint" />
            <mxPoint x="890" y="780" as="targetPoint" />
          </mxGeometry>
        </mxCell>
        <mxCell id="ps8U6fKTgYQEevWGZBMo-88" value="" style="endArrow=classic;html=1;rounded=0;exitX=0;exitY=0.5;exitDx=0;exitDy=0;" edge="1" parent="1" source="ps8U6fKTgYQEevWGZBMo-6">
          <mxGeometry width="50" height="50" relative="1" as="geometry">
            <mxPoint x="360" y="690" as="sourcePoint" />
            <mxPoint x="320" y="860" as="targetPoint" />
            <Array as="points">
              <mxPoint x="-520" y="125" />
              <mxPoint x="-510" y="830" />
              <mxPoint x="320" y="830" />
            </Array>
          </mxGeometry>
        </mxCell>
        <mxCell id="ps8U6fKTgYQEevWGZBMo-89" value="Пользователь" style="swimlane;whiteSpace=wrap;html=1;" vertex="1" parent="1">
          <mxGeometry x="-540" width="700" height="970" as="geometry" />
        </mxCell>
        <mxCell id="ps8U6fKTgYQEevWGZBMo-90" value="Система" style="swimlane;whiteSpace=wrap;html=1;" vertex="1" parent="1">
          <mxGeometry x="160" width="520" height="970" as="geometry" />
        </mxCell>
        <mxCell id="ps8U6fKTgYQEevWGZBMo-11" value="[Успешно]" style="text;html=1;align=center;verticalAlign=middle;whiteSpace=wrap;rounded=0;" vertex="1" parent="ps8U6fKTgYQEevWGZBMo-90">
          <mxGeometry x="260" y="204" width="60" height="30" as="geometry" />
        </mxCell>
        <mxCell id="ps8U6fKTgYQEevWGZBMo-80" value="Выход из программы" style="rounded=1;whiteSpace=wrap;html=1;" vertex="1" parent="ps8U6fKTgYQEevWGZBMo-90">
          <mxGeometry x="195" y="880" width="110" height="30" as="geometry" />
        </mxCell>
        <mxCell id="ps8U6fKTgYQEevWGZBMo-87" value="" style="ellipse;html=1;shape=endState;fillColor=#000000;strokeColor=#ff0000;" vertex="1" parent="ps8U6fKTgYQEevWGZBMo-90">
          <mxGeometry x="235" y="930" width="30" height="30" as="geometry" />
        </mxCell>
        <mxCell id="ps8U6fKTgYQEevWGZBMo-106" value="" style="endArrow=classic;html=1;rounded=0;exitX=0.5;exitY=1;exitDx=0;exitDy=0;entryX=0.5;entryY=0;entryDx=0;entryDy=0;" edge="1" parent="ps8U6fKTgYQEevWGZBMo-90" source="ps8U6fKTgYQEevWGZBMo-80" target="ps8U6fKTgYQEevWGZBMo-87">
          <mxGeometry width="50" height="50" relative="1" as="geometry">
            <mxPoint x="170" y="750" as="sourcePoint" />
            <mxPoint x="220" y="700" as="targetPoint" />
          </mxGeometry>
        </mxCell>
        <mxCell id="ps8U6fKTgYQEevWGZBMo-91" value="Администратор" style="swimlane;whiteSpace=wrap;html=1;" vertex="1" parent="1">
          <mxGeometry x="680" width="700" height="970" as="geometry" />
        </mxCell>
        <mxCell id="ps8U6fKTgYQEevWGZBMo-95" value="" style="endArrow=classic;html=1;rounded=0;" edge="1" parent="ps8U6fKTgYQEevWGZBMo-91">
          <mxGeometry width="50" height="50" relative="1" as="geometry">
            <mxPoint x="234.70000000000005" y="590" as="sourcePoint" />
            <mxPoint x="235.01" y="620" as="targetPoint" />
          </mxGeometry>
        </mxCell>
        <mxCell id="ps8U6fKTgYQEevWGZBMo-96" value="" style="endArrow=classic;html=1;rounded=0;" edge="1" parent="ps8U6fKTgYQEevWGZBMo-91">
          <mxGeometry width="50" height="50" relative="1" as="geometry">
            <mxPoint x="234.70000000000005" y="650" as="sourcePoint" />
            <mxPoint x="235.01" y="680" as="targetPoint" />
          </mxGeometry>
        </mxCell>
        <mxCell id="ps8U6fKTgYQEevWGZBMo-97" value="" style="endArrow=classic;html=1;rounded=0;" edge="1" parent="ps8U6fKTgYQEevWGZBMo-91">
          <mxGeometry width="50" height="50" relative="1" as="geometry">
            <mxPoint x="380" y="650" as="sourcePoint" />
            <mxPoint x="380.30999999999995" y="680" as="targetPoint" />
          </mxGeometry>
        </mxCell>
        <mxCell id="ps8U6fKTgYQEevWGZBMo-98" value="" style="endArrow=classic;html=1;rounded=0;" edge="1" parent="ps8U6fKTgYQEevWGZBMo-91">
          <mxGeometry width="50" height="50" relative="1" as="geometry">
            <mxPoint x="540" y="650" as="sourcePoint" />
            <mxPoint x="540" y="680" as="targetPoint" />
          </mxGeometry>
        </mxCell>
        <mxCell id="ps8U6fKTgYQEevWGZBMo-101" value="" style="endArrow=none;html=1;rounded=0;strokeWidth=2;" edge="1" parent="1">
          <mxGeometry width="50" height="50" relative="1" as="geometry">
            <mxPoint x="280" y="210" as="sourcePoint" />
            <mxPoint x="560" y="210" as="targetPoint" />
          </mxGeometry>
        </mxCell>
        <mxCell id="ps8U6fKTgYQEevWGZBMo-103" value="" style="endArrow=none;html=1;rounded=0;strokeWidth=2;" edge="1" parent="1">
          <mxGeometry width="50" height="50" relative="1" as="geometry">
            <mxPoint x="250" y="860" as="sourcePoint" />
            <mxPoint x="560" y="860" as="targetPoint" />
          </mxGeometry>
        </mxCell>
        <mxCell id="ps8U6fKTgYQEevWGZBMo-104" value="" style="endArrow=classic;html=1;rounded=0;" edge="1" parent="1">
          <mxGeometry width="50" height="50" relative="1" as="geometry">
            <mxPoint x="410" y="780" as="sourcePoint" />
            <mxPoint x="410" y="860" as="targetPoint" />
          </mxGeometry>
        </mxCell>
        <mxCell id="ps8U6fKTgYQEevWGZBMo-105" value="" style="endArrow=classic;html=1;rounded=0;entryX=0.5;entryY=0;entryDx=0;entryDy=0;" edge="1" parent="1" target="ps8U6fKTgYQEevWGZBMo-80">
          <mxGeometry width="50" height="50" relative="1" as="geometry">
            <mxPoint x="410" y="860" as="sourcePoint" />
            <mxPoint x="340" y="720" as="targetPoint" />
          </mxGeometry>
        </mxCell>
      </root>
    </mxGraphModel>
  </diagram>
</mxfile>
